<?xml version="1.0" standalone="no"?>
<!DOCTYPE svg PUBLIC "-//W3C//DTD SVG 20010904//EN"
 "http://www.w3.org/TR/2001/REC-SVG-20010904/DTD/svg10.dtd">
<svg version="1.0" xmlns="http://www.w3.org/2000/svg"
 width="500.000000pt" height="500.000000pt" viewBox="0 0 500.000000 500.000000"
 preserveAspectRatio="xMidYMid meet">
<metadata>
Created by potrace 1.16, written by Peter Selinger 2001-2019
</metadata>
<g transform="translate(0.000000,500.000000) scale(0.100000,-0.100000)"
fill="#000000" stroke="none">
<path d="M2449 4846 c-2 -2 -40 -6 -84 -9 -170 -11 -400 -76 -585 -165 -82
-39 -255 -143 -270 -161 -3 -3 -22 -19 -44 -35 -72 -54 -173 -150 -249 -236
-83 -94 -257 -369 -257 -406 0 -8 -4 -14 -8 -14 -5 0 -15 -19 -22 -42 -7 -24
-17 -47 -22 -52 -4 -6 -8 -19 -8 -31 0 -12 -4 -25 -10 -31 -14 -14 -57 -186
-76 -304 -32 -204 -19 -500 32 -705 16 -68 67 -215 90 -260 8 -16 13 -33 12
-36 -2 -4 6 -16 16 -28 11 -12 16 -21 11 -21 -4 0 0 -11 9 -24 8 -14 25 -41
36 -60 11 -20 28 -51 39 -69 29 -51 81 -126 105 -151 11 -12 50 -55 86 -96 70
-80 85 -94 156 -155 26 -22 54 -48 63 -57 8 -10 21 -18 29 -18 7 0 15 -7 18
-15 4 -8 10 -12 15 -9 5 3 12 -2 15 -10 3 -9 12 -16 19 -16 7 0 15 -4 17 -9 2
-5 30 -23 63 -40 33 -18 85 -46 115 -62 156 -87 399 -158 615 -180 112 -11
336 -8 410 6 112 22 229 50 294 72 95 31 277 117 354 166 31 20 62 37 67 37 6
0 10 4 10 8 0 4 12 15 28 24 15 9 41 28 57 43 17 14 45 38 63 53 52 40 158
150 220 227 31 39 61 75 67 80 6 6 22 29 35 53 13 23 28 42 32 42 5 0 7 4 3 9
-3 6 2 14 11 19 9 5 15 11 14 13 -4 8 23 59 32 59 4 0 7 3 7 8 -3 12 25 72 33
72 4 0 8 4 8 10 0 5 11 33 24 62 13 29 35 89 49 133 23 75 30 101 56 216 6 26
16 112 23 193 26 326 -31 632 -172 921 -87 177 -165 288 -325 464 -51 56 -219
191 -308 248 -117 75 -293 157 -412 193 -49 14 -191 49 -225 55 -92 16 -370
31 -381 21z"/>
<path d="M1548 1290 c-54 -10 -115 -54 -135 -98 -14 -31 -17 -71 -17 -244 l-1
-206 30 -43 c37 -53 88 -79 163 -86 107 -10 215 40 242 113 14 37 13 413 -2
454 -16 47 -44 76 -92 96 -45 18 -130 24 -188 14z"/>
<path d="M482 1277 c-12 -14 -9 -634 3 -646 13 -12 175 -13 190 -1 12 10 15
38 15 125 0 125 0 125 76 125 52 0 100 26 114 61 8 19 13 73 13 141 0 124 -11
149 -74 180 -46 23 -320 36 -337 15z"/>
<path d="M933 1278 c-6 -8 -10 -139 -11 -330 l-2 -318 23 -5 c12 -3 60 -5 107
-3 l85 3 -3 133 c-2 105 0 133 10 130 10 -3 14 -39 16 -131 3 -147 -4 -140
122 -135 l75 3 3 135 c2 122 1 137 -18 162 l-20 28 20 40 c23 45 27 136 9 191
-27 80 -68 95 -275 104 -100 4 -133 3 -141 -7z"/>
<path d="M1856 1275 c-11 -9 -12 -21 -5 -60 5 -27 7 -65 3 -85 -3 -22 -2 -30
3 -22 6 8 16 -35 26 -120 27 -204 39 -290 46 -323 l7 -30 116 -3 116 -3 6 28
c3 15 10 64 17 108 12 86 33 163 25 92 -3 -20 -1 -35 3 -32 5 2 11 -8 13 -25
3 -19 1 -27 -6 -23 -6 4 -6 0 1 -8 7 -8 18 -42 25 -74 l13 -60 123 -3 122 -3
0 38 c0 21 4 65 10 98 12 77 50 362 58 440 4 33 12 60 17 60 6 0 12 -115 15
-315 l5 -315 155 -1 c85 -1 162 -3 170 -4 37 -4 187 2 195 8 6 4 10 15 11 25
0 9 1 33 2 52 2 30 6 35 26 35 20 0 25 -6 30 -45 4 -25 5 -49 2 -54 -9 -14 15
-19 100 -19 43 0 86 -3 95 -7 12 -4 16 1 16 25 0 16 -4 30 -9 30 -5 0 -7 3 -4
8 2 4 0 30 -5 57 -6 28 -12 68 -15 90 -3 22 -16 99 -29 170 -13 72 -29 163
-35 203 l-12 72 -133 0 c-96 0 -135 -4 -143 -13 -6 -7 -14 -40 -17 -72 -3 -33
-14 -114 -25 -180 -11 -66 -23 -149 -26 -183 -5 -49 -10 -62 -21 -58 -8 4 -41
6 -74 6 l-59 0 0 61 0 61 70 -4 c42 -1 69 1 69 7 -1 6 -5 9 -10 8 -9 -3 -11
11 -13 77 -1 44 -9 50 -69 50 l-48 0 3 47 3 46 55 1 55 1 3 73 3 72 -143 1
c-289 2 -382 -2 -394 -16 -5 -7 -16 -69 -23 -137 -7 -68 -13 -132 -15 -143 -2
-19 -16 76 -33 220 l-8 70 -95 3 c-72 2 -100 -1 -115 -12 -15 -11 -17 -18 -9
-26 8 -7 8 -28 1 -68 -13 -80 -14 -91 -17 -147 l-3 -50 -9 65 c-5 36 -11 104
-14 152 l-5 87 -90 3 c-51 2 -95 -1 -103 -7z"/>
<path d="M3426 982 c0 -163 1 -310 2 -327 l2 -30 140 5 c78 3 152 2 165 -2 22
-5 24 -4 15 12 -6 10 -10 46 -10 79 l0 61 -55 0 c-50 0 -55 2 -55 23 -1 19 -1
365 0 425 0 13 6 22 15 22 11 0 15 -12 15 -48 0 -59 12 -72 67 -72 l43 0 0
-249 0 -250 105 -3 105 -3 -3 255 -4 256 51 -1 c28 0 54 -3 57 -7 3 -5 4 19 2
53 -2 33 2 69 8 80 10 20 6 20 -220 18 -163 -1 -231 -4 -235 -13 -3 -7 -5 -7
-5 2 -1 9 -29 12 -103 12 l-103 0 1 -298z"/>
<path d="M4106 1271 c-4 -5 -5 -151 -3 -323 l4 -313 84 0 c46 0 90 -4 97 -8
15 -10 14 -18 13 141 -1 125 0 132 19 132 19 0 20 -7 20 -129 0 -95 3 -131 13
-140 8 -6 16 -9 18 -6 3 2 42 5 87 6 l82 2 0 324 0 324 -114 -2 c-93 -1 -114
-4 -109 -15 3 -8 9 -14 14 -14 5 0 9 -45 9 -100 0 -55 -4 -100 -9 -100 -25 0
-33 33 -30 127 l4 98 -97 3 c-54 1 -99 -1 -102 -7z"/>
<path d="M487 563 c-4 -3 -7 -95 -7 -204 0 -155 3 -198 13 -202 31 -12 37 9
39 139 4 232 1 274 -20 274 -10 0 -22 -3 -25 -7z"/>
<path d="M2943 555 c-7 -7 -25 -40 -41 -72 -16 -32 -59 -115 -96 -186 -59
-113 -65 -128 -49 -134 10 -3 21 -8 25 -10 4 -2 27 35 50 82 l43 86 82 -2 81
-3 38 -75 c20 -42 49 -91 65 -110 15 -19 25 -39 22 -44 -3 -6 -1 -7 5 -3 6 4
26 -1 43 -10 42 -21 116 -14 157 15 53 38 60 112 15 159 -16 17 -16 29 -1 38
7 5 8 3 3 -6 -6 -9 -4 -11 4 -6 7 5 10 10 7 13 -3 3 1 18 9 33 13 24 13 33 1
61 -12 28 -11 36 3 60 13 22 13 31 3 41 -9 9 -15 9 -24 0 -7 -7 -41 -12 -80
-12 -69 0 -128 -19 -128 -41 0 -6 -6 -9 -14 -6 -10 4 -12 0 -9 -14 3 -11 0
-19 -7 -19 -8 0 -9 -4 -3 -12 12 -17 14 -60 3 -53 -6 3 -7 -1 -4 -10 4 -9 9
-14 12 -11 11 12 42 -44 38 -69 -5 -24 -4 -25 17 -10 27 19 86 19 113 1 27
-19 22 -91 -8 -107 -28 -15 -86 -2 -114 26 -13 13 -24 21 -24 17 0 -4 -42 76
-93 178 -124 247 -121 242 -144 215z"/>
<path d="M1291 470 c-9 -5 -13 -42 -14 -113 -2 -121 -12 -140 -72 -142 -59 -2
-69 19 -73 146 -4 109 -4 109 -29 109 l-26 0 5 -131 c6 -138 9 -148 65 -177
23 -12 109 -10 120 3 5 4 2 5 -6 0 -10 -6 -12 -4 -7 4 6 9 13 8 27 -5 15 -13
22 -14 33 -5 12 10 15 42 15 148 1 75 2 138 4 139 1 2 9 -1 17 -6 12 -7 15
-38 16 -147 1 -128 3 -138 20 -138 29 -1 34 13 34 108 0 92 10 127 36 127 8 0
13 4 10 9 -10 15 25 22 42 9 13 -11 14 -10 8 10 -5 15 -3 22 5 22 7 0 9 -3 6
-7 -9 -9 13 -34 24 -27 5 3 9 -1 9 -8 1 -9 3 -8 10 2 10 18 80 26 80 10 0 -6
4 -9 9 -6 7 5 21 -14 21 -27 0 -1 -25 -1 -56 0 -62 1 -93 -17 -114 -67 -15
-36 4 -109 33 -130 29 -20 88 -30 110 -19 11 6 24 6 38 -2 13 -6 25 -7 30 -2
5 5 10 70 12 144 l2 135 -33 17 c-37 19 -90 22 -140 8 -21 -6 -30 -6 -26 0 3
6 -12 9 -41 8 -25 -2 -48 -6 -51 -11 -3 -4 -10 -8 -15 -8 -6 0 -8 4 -5 9 8 13
-28 20 -48 9 -11 -6 -27 -6 -45 0 -16 6 -34 7 -40 2z"/>
<path d="M4502 450 c-14 -16 -27 -36 -29 -45 -2 -8 -4 -23 -6 -32 -2 -10 -13
-22 -25 -28 -12 -5 -22 -13 -22 -18 0 -4 5 -5 10 -2 13 8 13 3 0 -31 -10 -26
-13 -24 -61 73 l-50 100 -108 -1 c-91 -1 -112 -4 -129 -19 -12 -11 -25 -16
-30 -13 -10 6 -27 -22 -23 -38 1 -5 -5 -6 -14 -3 -8 4 -15 2 -15 -3 0 -6 4
-10 9 -10 5 0 7 -9 4 -20 -7 -28 7 -151 17 -145 4 3 14 -2 21 -11 37 -44 131
-64 181 -37 18 9 36 16 41 15 4 -1 7 10 7 24 0 24 -3 26 -27 19 -16 -5 -52 -8
-82 -8 -48 0 -57 3 -83 32 -35 39 -36 75 -3 124 14 20 27 37 28 38 47 11 91 8
114 -6 25 -17 27 -17 39 0 12 16 15 13 36 -27 13 -25 33 -64 46 -88 13 -23 26
-52 28 -64 5 -22 -34 -116 -48 -116 -4 0 -8 -11 -8 -25 0 -19 5 -25 23 -25 20
0 36 24 112 175 48 96 92 175 97 175 4 0 8 13 8 29 0 42 -26 47 -58 11z"/>
<path d="M564 455 c-11 -8 -14 -15 -6 -15 8 0 12 -19 12 -60 0 -33 4 -60 10
-60 13 0 13 -125 0 -149 -9 -18 -2 -20 43 -12 4 0 7 41 7 90 0 136 24 180 92
166 45 -10 60 -56 57 -168 -2 -65 0 -92 9 -95 18 -6 42 17 42 40 0 17 3 16 27
-7 15 -14 37 -25 48 -26 11 0 31 -2 45 -4 24 -3 61 14 86 40 17 17 11 93 -9
113 -10 9 -39 24 -65 32 -33 11 -47 20 -46 33 1 9 -2 14 -7 11 -5 -3 -9 -1 -9
5 0 26 67 34 94 12 15 -13 50 -3 53 16 2 6 -9 21 -24 32 -29 24 -91 28 -126 9
-23 -12 -52 -38 -43 -38 3 0 2 -10 -3 -22 -14 -36 25 -93 69 -103 43 -11 60
-20 60 -34 -1 -40 -42 -59 -78 -35 -19 12 -30 14 -47 6 -22 -10 -23 -10 -27
76 -3 48 -11 99 -18 113 -24 51 -106 66 -154 28 l-26 -20 0 20 c0 25 -36 29
-66 6z"/>
<path d="M1779 463 c-4 -34 1 -299 5 -300 29 -13 34 0 38 102 3 102 4 106 32
130 33 28 44 30 81 13 30 -14 26 2 34 -138 6 -108 7 -115 26 -112 11 2 21 5
23 7 1 1 3 52 3 112 0 122 -10 157 -52 179 -32 16 -109 19 -109 4 0 -5 -6 -10
-14 -10 -8 0 -17 -6 -20 -12 -3 -7 -3 -3 0 10 4 18 1 22 -20 22 -14 0 -26 -3
-27 -7z"/>
<path d="M2125 453 c-16 -9 -38 -27 -48 -40 -10 -13 -22 -21 -25 -19 -15 9
-12 -111 3 -147 35 -85 173 -124 237 -67 24 21 26 26 13 39 -11 11 -20 12 -38
4 -13 -6 -46 -9 -73 -8 -38 3 -54 10 -71 29 -31 36 -41 95 -20 111 9 7 14 15
11 18 -3 3 3 10 14 16 11 6 23 7 27 3 3 -4 5 -1 3 7 -4 19 46 25 86 11 17 -6
46 -13 65 -16 29 -4 32 -3 21 11 -7 8 -16 13 -20 10 -4 -3 -7 3 -6 12 3 40
-120 58 -179 26z"/>
<path d="M2430 457 c-70 -33 -90 -63 -91 -140 -2 -74 23 -118 86 -150 74 -37
244 28 190 73 -10 8 -21 6 -46 -9 -25 -16 -43 -19 -78 -14 -51 6 -81 19 -81
33 0 10 54 47 120 81 22 12 42 25 45 30 3 4 13 5 22 2 10 -4 14 -2 10 4 -4 6
-2 13 4 15 20 7 0 46 -35 68 -37 22 -105 26 -146 7z"/>
<path d="M3533 460 c-13 -5 -23 -6 -23 -2 0 4 -5 -1 -11 -10 -5 -10 -17 -18
-25 -18 -8 0 -12 -4 -9 -10 3 -5 0 -7 -8 -4 -11 4 -16 -9 -20 -54 -10 -95 10
-145 77 -188 36 -23 128 -22 164 2 20 13 26 14 33 3 6 -9 9 -2 9 23 0 47 -10
53 -52 30 -18 -10 -50 -20 -71 -21 -39 -3 -87 20 -87 41 0 6 3 8 7 5 3 -4 13
2 21 14 8 11 20 18 28 15 8 -3 14 1 14 8 0 7 24 25 53 40 75 38 90 52 83 73
-16 47 -125 78 -183 53z"/>
<path d="M3743 458 c-20 -26 -26 -41 -15 -34 16 10 16 -127 1 -156 -8 -15 -8
-19 0 -14 7 5 11 -10 11 -46 0 -49 2 -54 23 -54 21 0 22 4 23 81 3 125 3 130
17 148 6 9 27 21 45 27 29 8 37 6 58 -15 22 -22 24 -32 24 -128 0 -57 3 -106
6 -109 3 -3 14 -4 24 -1 17 5 19 17 22 123 2 64 0 121 -4 126 -41 55 -59 65
-106 63 -26 -1 -53 -7 -61 -13 -11 -8 -13 -8 -7 2 5 8 -1 12 -22 12 -16 0 -34
-6 -39 -12z"/>
</g>
</svg>
